<svg width="124" height="28" xmlns="http://www.w3.org/2000/svg">
  <g fill="none" fill-rule="evenodd">
    <path d="M25.375 0H2.625A2.625 2.625 0 0 0 0 2.625v22.75A2.625 2.625 0 0 0 2.625 28h22.75A2.625 2.625 0 0 0 28 25.375V2.625A2.625 2.625 0 0 0 25.375 0" fill="#0077B5"/>
    <path d="M14.875 12.025V10H11v14h4v-6.625c0-1.772.663-3.5 2.65-3.5 1.817 0 2.35 1.09 2.35 3V24h4v-9.025c0-3.225-1.708-5.1-4.986-5.1-2.091 0-3.565 1.15-4.14 2.15zM4 24V10h4v14H4zM6 3.665a2.334 2.334 0 1 1 .001 4.669A2.334 2.334 0 0 1 6 3.665z" fill="#FFF"/>
    <path d="M38.53 8.848h1.411v9.945h4.879V20h-6.29V8.848zm10.262 0h6.426v1.19h-5.015v3.502h4.233v1.207h-4.233v4.046h5.185V20h-6.596V8.848zm15.702 6.613l-.527-1.7a63.428 63.428 0 0 1-.578-1.861c-.181-.618-.363-1.25-.544-1.896h-.068a63.428 63.428 0 0 1-1.105 3.757l-.527 1.7h3.349zm.357 1.139h-4.063L59.717 20h-1.445l3.774-11.152h1.598L67.418 20h-1.513l-1.054-3.4zm7.559-2.465h1.87c.873 0 1.541-.178 2.006-.535.465-.358.697-.899.697-1.624 0-.737-.232-1.252-.697-1.547-.465-.295-1.133-.442-2.006-.442h-1.87v4.148zM77.119 20l-2.686-4.709H72.41V20h-1.411V8.848h3.485c.567 0 1.09.054 1.573.161a3.34 3.34 0 0 1 1.24.536c.346.25.615.572.808.969.193.397.289.884.289 1.462 0 .873-.227 1.57-.68 2.091-.453.521-1.06.878-1.819 1.071L78.717 20h-1.598zm5.757-11.152h1.462l4.029 7.004 1.207 2.312h.068c-.034-.567-.07-1.153-.11-1.76-.04-.606-.06-1.204-.06-1.793V8.848h1.343V20h-1.462l-4.046-7.021-1.207-2.295h-.068c.045.567.088 1.142.127 1.726.04.583.06 1.17.06 1.759V20h-1.343V8.848zm12.999 0h1.411V20h-1.411V8.848zm6.471 0h1.462l4.029 7.004 1.207 2.312h.068c-.034-.567-.07-1.153-.11-1.76-.04-.606-.06-1.204-.06-1.793V8.848h1.343V20h-1.462l-4.046-7.021-1.207-2.295h-.068c.045.567.088 1.142.127 1.726.04.583.06 1.17.06 1.759V20h-1.343V8.848zm12.353 5.576c0-.895.127-1.7.383-2.414.255-.714.611-1.32 1.07-1.819.46-.499 1-.881 1.624-1.148a5.182 5.182 0 0 1 2.057-.399c.77 0 1.414.144 1.93.434.515.289.937.603 1.266.943l-.799.901a3.933 3.933 0 0 0-.978-.74c-.368-.198-.835-.297-1.402-.297s-1.077.105-1.53.315c-.453.21-.839.51-1.156.9a4.268 4.268 0 0 0-.74 1.42 6.186 6.186 0 0 0-.263 1.87c0 .703.082 1.334.246 1.895.165.562.403 1.04.715 1.437.311.397.696.703 1.156.918.459.215.988.323 1.589.323.397 0 .773-.06 1.13-.178.358-.12.65-.281.876-.485v-2.907h-2.363V14.22h3.655v4.692c-.363.374-.841.683-1.437.927-.595.243-1.266.365-2.014.365a5.11 5.11 0 0 1-2.023-.391 4.428 4.428 0 0 1-1.581-1.13c-.442-.494-.788-1.1-1.037-1.82-.25-.72-.374-1.532-.374-2.439z" fill-opacity=".7" fill="#000"/>
  </g>
</svg>