<svg width="1442" height="250" viewBox="0 0 1442 250" fill="none" xmlns="http://www.w3.org/2000/svg">
<path d="M675.317 70.4489C469.546 93.9241 140.034 89.8458 1 84.8722V249H1441V84.8722C1437.03 84.8722 1386.08 87.2595 1214.08 96.8088C999.069 108.745 932.531 41.1048 675.317 70.4489Z" fill="#FFD800" fill-opacity="0.1"/>
<path d="M837.145 34.9054C617.454 -61.3115 188.177 64.0167 1 138.708V248H1441V145.196C1432.47 143.033 1378.99 126.93 1233.32 79.82C1051.23 20.9321 1111.76 155.177 837.145 34.9054Z" fill="#FFD800" fill-opacity="0.4"/>
<path d="M513.5 51.4221C312.3 23.4817 88 71.712 1 99.3197V249H1441V99.3197C1385.5 93.4988 1231.9 87.1458 1061.5 108.301C848.5 134.744 765 86.3475 513.5 51.4221Z" fill="#FFD800" fill-opacity="0.3"/>
<path d="M700.444 121.5C488.376 47.9 145.453 125.167 0.5 173V249.5H1441.09V179.5C1437.12 177.333 1391.85 153.5 1242.53 75.5C1055.88 -22 965.529 213.5 700.444 121.5Z" fill="#FFD800" fill-opacity="0.3"/>
</svg>
