<svg width="1144" height="618" viewBox="0 0 1144 618" fill="none" xmlns="http://www.w3.org/2000/svg">
<g clip-path="url(#clip0)">
<path opacity="0.2" d="M235.66 116.18V136.53H216.66C222.613 129.543 228.947 122.76 235.66 116.18Z" fill="#FAFF00"/>
<path opacity="0.1" d="M1144 396.23C1144.01 413 1141.71 429.691 1137.15 445.83C1132.74 461.388 1126.26 476.282 1117.88 490.11C1117.88 540.21 1084.06 583.51 1034.97 604.11C1014.46 612.632 992.452 616.983 970.24 616.91H217.17C176.92 616.91 139.62 606.05 109.03 587.55C100.275 582.28 91.9705 576.296 84.2 569.66C50.2 540.44 29.12 500.06 29.12 455.46C10.0381 426.077 -0.0799637 391.775 -1.81681e-05 356.74C-1.81681e-05 283.38 43.39 220.3 105.55 192.45C113.804 188.754 122.333 185.704 131.06 183.33C134.147 182.49 137.267 181.737 140.42 181.07C148.826 179.28 157.352 178.11 165.93 177.57C169.03 177.377 172.147 177.267 175.28 177.24H177C180.46 177.24 183.89 177.36 187.3 177.56L188.42 175.66C189.793 173.367 191.2 171.097 192.64 168.85C195.24 164.757 197.967 160.723 200.82 156.75C203.807 152.557 206.923 148.43 210.17 144.37L211 143.37C212.84 141.077 214.72 138.81 216.64 136.57C222.64 129.577 228.973 122.793 235.64 116.22C307.75 45.54 420.72 0.0400085 547.72 0.0400085C646.54 0.0400085 736.87 27.59 806.06 73.11C832.272 58.2766 861.882 50.4933 892 50.52C989.74 50.52 1069 130.89 1069 230.03C1068.99 236.303 1068.65 242.571 1068 248.81C1091.56 265.488 1110.76 287.588 1123.99 313.245C1137.22 338.902 1144.08 367.364 1144 396.23Z" fill="#FAFF00"/>
<path opacity="0.2" d="M270.53 111.02H245.02V136.53H270.53V111.02Z" fill="#FAFF00"/>
<path opacity="0.2" d="M305.39 111.02H279.88V136.53H305.39V111.02Z" fill="#FAFF00"/>
<path opacity="0.2" d="M340.26 111.02H314.75V136.53H340.26V111.02Z" fill="#FAFF00"/>
<path opacity="0.2" d="M375.12 111.02H349.61V136.53H375.12V111.02Z" fill="#FAFF00"/>
<path opacity="0.2" d="M409.99 111.02H384.48V136.53H409.99V111.02Z" fill="#FAFF00"/>
<path d="M444.86 111.02H419.35V136.53H444.86V111.02Z" fill="#FAFF00"/>
<path opacity="0.2" d="M479.72 111.02H454.21V136.53H479.72V111.02Z" fill="#FAFF00"/>
<path opacity="0.2" d="M514.59 111.02H489.08V136.53H514.59V111.02Z" fill="#FAFF00"/>
<path opacity="0.2" d="M549.45 111.02H523.94V136.53H549.45V111.02Z" fill="#FAFF00"/>
<path d="M584.32 111.02H558.81V136.53H584.32V111.02Z" fill="#FAFF00"/>
<path opacity="0.2" d="M619.19 111.02H593.68V136.53H619.19V111.02Z" fill="#FAFF00"/>
<path opacity="0.2" d="M654.05 111.02H628.54V136.53H654.05V111.02Z" fill="#FAFF00"/>
<path opacity="0.2" d="M688.92 111.02H663.41V136.53H688.92V111.02Z" fill="#FAFF00"/>
<path opacity="0.2" d="M723.79 111.02H698.28V136.53H723.79V111.02Z" fill="#FAFF00"/>
<path opacity="0.2" d="M758.65 111.02H733.14V136.53H758.65V111.02Z" fill="#FAFF00"/>
<path opacity="0.2" d="M793.52 111.02H768.01V136.53H793.52V111.02Z" fill="#FAFF00"/>
<path d="M828.38 111.02H802.87V136.53H828.38V111.02Z" fill="#FAFF00"/>
<path d="M863.25 111.02H837.74V136.53H863.25V111.02Z" fill="#FAFF00"/>
<path opacity="0.2" d="M898.12 111.02H872.61V136.53H898.12V111.02Z" fill="#FAFF00"/>
<path opacity="0.2" d="M932.98 111.02H907.47V136.53H932.98V111.02Z" fill="#FAFF00"/>
<path d="M967.85 111.02H942.34V136.53H967.85V111.02Z" fill="#FAFF00"/>
<path d="M1002.71 111.02H977.2V136.53H1002.71V111.02Z" fill="#FAFF00"/>
<path d="M200.8 156.74V168.84H192.62C195.22 164.72 197.947 160.687 200.8 156.74Z" fill="#FAFF00"/>
<path opacity="0.2" d="M235.66 143.33H210.15V168.84H235.66V143.33Z" fill="#FAFF00"/>
<path d="M270.53 143.33H245.02V168.84H270.53V143.33Z" fill="#FAFF00"/>
<path opacity="0.2" d="M305.39 143.33H279.88V168.84H305.39V143.33Z" fill="#FAFF00"/>
<path opacity="0.7" d="M340.26 143.33H314.75V168.84H340.26V143.33Z" fill="#FAFF00"/>
<path opacity="0.2" d="M375.12 143.33H349.61V168.84H375.12V143.33Z" fill="#FAFF00"/>
<path opacity="0.4" d="M409.99 143.33H384.48V168.84H409.99V143.33Z" fill="#FAFF00"/>
<path d="M444.86 143.33H419.35V168.84H444.86V143.33Z" fill="#FAFF00"/>
<path opacity="0.4" d="M479.72 143.33H454.21V168.84H479.72V143.33Z" fill="#FAFF00"/>
<path opacity="0.2" d="M514.59 143.33H489.08V168.84H514.59V143.33Z" fill="#FAFF00"/>
<path opacity="0.4" d="M549.45 143.33H523.94V168.84H549.45V143.33Z" fill="#FAFF00"/>
<path d="M584.32 143.33H558.81V168.84H584.32V143.33Z" fill="#FAFF00"/>
<path opacity="0.4" d="M619.19 143.33H593.68V168.84H619.19V143.33Z" fill="#FAFF00"/>
<path opacity="0.4" d="M654.05 143.33H628.54V168.84H654.05V143.33Z" fill="#FAFF00"/>
<path opacity="0.2" d="M688.92 143.33H663.41V168.84H688.92V143.33Z" fill="#FAFF00"/>
<path opacity="0.4" d="M723.79 143.33H698.28V168.84H723.79V143.33Z" fill="#FAFF00"/>
<path opacity="0.4" d="M758.65 143.33H733.14V168.84H758.65V143.33Z" fill="#FAFF00"/>
<path opacity="0.2" d="M793.52 143.33H768.01V168.84H793.52V143.33Z" fill="#FAFF00"/>
<path opacity="0.2" d="M828.38 143.33H802.87V168.84H828.38V143.33Z" fill="#FAFF00"/>
<path opacity="0.4" d="M863.25 143.33H837.74V168.84H863.25V143.33Z" fill="#FAFF00"/>
<path opacity="0.2" d="M898.12 143.33H872.61V168.84H898.12V143.33Z" fill="#FAFF00"/>
<path d="M932.98 143.33H907.47V168.84H932.98V143.33Z" fill="#FAFF00"/>
<path d="M967.85 143.33H942.34V168.84H967.85V143.33Z" fill="#FAFF00"/>
<path d="M1002.71 143.33H977.2V168.84H1002.71V143.33Z" fill="#FAFF00"/>
<path opacity="0.2" d="M131.06 183.33V201.16H105.55V192.45C113.804 188.754 122.333 185.704 131.06 183.33V183.33Z" fill="#FAFF00"/>
<path opacity="0.2" d="M165.93 177.57V201.16H140.42V181.07L165.93 177.57Z" fill="#FAFF00"/>
<path d="M200.79 175.65H175.28V201.16H200.79V175.65Z" fill="#FAFF00"/>
<path opacity="0.7" d="M235.66 175.65H210.15V201.16H235.66V175.65Z" fill="#FAFF00"/>
<path d="M270.53 175.65H245.02V201.16H270.53V175.65Z" fill="#FAFF00"/>
<path opacity="0.7" d="M305.39 175.65H279.88V201.16H305.39V175.65Z" fill="#FAFF00"/>
<path opacity="0.7" d="M340.26 175.65H314.75V201.16H340.26V175.65Z" fill="#FAFF00"/>
<path opacity="0.2" d="M375.12 175.65H349.61V201.16H375.12V175.65Z" fill="#FAFF00"/>
<path opacity="0.4" d="M409.99 175.65H384.48V201.16H409.99V175.65Z" fill="#FAFF00"/>
<path opacity="0.4" d="M444.86 175.65H419.35V201.16H444.86V175.65Z" fill="#FAFF00"/>
<path d="M479.72 175.65H454.21V201.16H479.72V175.65Z" fill="#FAFF00"/>
<path opacity="0.2" d="M514.59 175.65H489.08V201.16H514.59V175.65Z" fill="#FAFF00"/>
<path opacity="0.4" d="M549.45 175.65H523.94V201.16H549.45V175.65Z" fill="#FAFF00"/>
<path d="M584.32 175.65H558.81V201.16H584.32V175.65Z" fill="#FAFF00"/>
<path opacity="0.2" d="M619.19 175.65H593.68V201.16H619.19V175.65Z" fill="#FAFF00"/>
<path opacity="0.4" d="M654.05 175.65H628.54V201.16H654.05V175.65Z" fill="#FAFF00"/>
<path opacity="0.2" d="M688.92 175.65H663.41V201.16H688.92V175.65Z" fill="#FAFF00"/>
<path d="M723.79 175.65H698.28V201.16H723.79V175.65Z" fill="#FAFF00"/>
<path opacity="0.2" d="M758.65 175.65H733.14V201.16H758.65V175.65Z" fill="#FAFF00"/>
<path opacity="0.7" d="M793.52 175.65H768.01V201.16H793.52V175.65Z" fill="#FAFF00"/>
<path opacity="0.7" d="M828.38 175.65H802.87V201.16H828.38V175.65Z" fill="#FAFF00"/>
<path opacity="0.4" d="M863.25 175.65H837.74V201.16H863.25V175.65Z" fill="#FAFF00"/>
<path opacity="0.2" d="M898.12 175.65H872.61V201.16H898.12V175.65Z" fill="#FAFF00"/>
<path d="M932.98 175.65H907.47V201.16H932.98V175.65Z" fill="#FAFF00"/>
<path d="M967.85 175.65H942.34V201.16H967.85V175.65Z" fill="#FAFF00"/>
<path d="M1002.71 175.65H977.2V201.16H1002.71V175.65Z" fill="#FAFF00"/>
<path opacity="0.2" d="M131.06 207.96H105.55V233.47H131.06V207.96Z" fill="#FAFF00"/>
<path opacity="0.2" d="M165.93 207.96H140.42V233.47H165.93V207.96Z" fill="#FAFF00"/>
<path opacity="0.2" d="M200.79 207.96H175.28V233.47H200.79V207.96Z" fill="#FAFF00"/>
<path opacity="0.2" d="M235.66 207.96H210.15V233.47H235.66V207.96Z" fill="#FAFF00"/>
<path d="M270.53 207.96H245.02V233.47H270.53V207.96Z" fill="#FAFF00"/>
<path opacity="0.7" d="M305.39 207.96H279.88V233.47H305.39V207.96Z" fill="#FAFF00"/>
<path opacity="0.7" d="M340.26 207.96H314.75V233.47H340.26V207.96Z" fill="#FAFF00"/>
<path opacity="0.2" d="M375.12 207.96H349.61V233.47H375.12V207.96Z" fill="#FAFF00"/>
<path opacity="0.2" d="M409.99 207.96H384.48V233.47H409.99V207.96Z" fill="#FAFF00"/>
<path opacity="0.4" d="M444.86 207.96H419.35V233.47H444.86V207.96Z" fill="#FAFF00"/>
<path opacity="0.4" d="M479.72 207.96H454.21V233.47H479.72V207.96Z" fill="#FAFF00"/>
<path d="M514.59 207.96H489.08V233.47H514.59V207.96Z" fill="#FAFF00"/>
<path opacity="0.2" d="M549.45 207.96H523.94V233.47H549.45V207.96Z" fill="#FAFF00"/>
<path opacity="0.4" d="M584.32 207.96H558.81V233.47H584.32V207.96Z" fill="#FAFF00"/>
<path opacity="0.4" d="M619.19 207.96H593.68V233.47H619.19V207.96Z" fill="#FAFF00"/>
<path opacity="0.4" d="M654.05 207.96H628.54V233.47H654.05V207.96Z" fill="#FAFF00"/>
<path opacity="0.4" d="M688.92 207.96H663.41V233.47H688.92V207.96Z" fill="#FAFF00"/>
<path opacity="0.2" d="M723.79 207.96H698.28V233.47H723.79V207.96Z" fill="#FAFF00"/>
<path opacity="0.2" d="M758.65 207.96H733.14V233.47H758.65V207.96Z" fill="#FAFF00"/>
<path opacity="0.2" d="M793.52 207.96H768.01V233.47H793.52V207.96Z" fill="#FAFF00"/>
<path opacity="0.2" d="M828.38 207.96H802.87V233.47H828.38V207.96Z" fill="#FAFF00"/>
<path opacity="0.7" d="M863.25 207.96H837.74V233.47H863.25V207.96Z" fill="#FAFF00"/>
<path opacity="0.7" d="M898.12 207.96H872.61V233.47H898.12V207.96Z" fill="#FAFF00"/>
<path opacity="0.4" d="M932.98 207.96H907.47V233.47H932.98V207.96Z" fill="#FAFF00"/>
<path opacity="0.2" d="M967.85 207.96H942.34V233.47H967.85V207.96Z" fill="#FAFF00"/>
<path d="M1002.71 207.96H977.2V233.47H1002.71V207.96Z" fill="#FAFF00"/>
<path opacity="0.2" d="M131.06 240.28H105.55V265.79H131.06V240.28Z" fill="#FAFF00"/>
<path opacity="0.2" d="M165.93 240.28H140.42V265.79H165.93V240.28Z" fill="#FAFF00"/>
<path opacity="0.4" d="M200.79 240.28H175.28V265.79H200.79V240.28Z" fill="#FAFF00"/>
<path opacity="0.2" d="M235.66 240.28H210.15V265.79H235.66V240.28Z" fill="#FAFF00"/>
<path opacity="0.2" d="M270.53 240.28H245.02V265.79H270.53V240.28Z" fill="#FAFF00"/>
<path opacity="0.7" d="M305.39 240.28H279.88V265.79H305.39V240.28Z" fill="#FAFF00"/>
<path opacity="0.7" d="M340.26 240.28H314.75V265.79H340.26V240.28Z" fill="#FAFF00"/>
<path opacity="0.2" d="M375.12 240.28H349.61V265.79H375.12V240.28Z" fill="#FAFF00"/>
<path opacity="0.2" d="M409.99 240.28H384.48V265.79H409.99V240.28Z" fill="#FAFF00"/>
<path opacity="0.4" d="M444.86 240.28H419.35V265.79H444.86V240.28Z" fill="#FAFF00"/>
<path d="M479.72 240.28H454.21V265.79H479.72V240.28Z" fill="#FAFF00"/>
<path opacity="0.2" d="M514.59 240.28H489.08V265.79H514.59V240.28Z" fill="#FAFF00"/>
<path d="M549.45 240.28H523.94V265.79H549.45V240.28Z" fill="#FAFF00"/>
<path d="M584.32 240.28H558.81V265.79H584.32V240.28Z" fill="#FAFF00"/>
<path d="M619.19 240.28H593.68V265.79H619.19V240.28Z" fill="#FAFF00"/>
<path opacity="0.2" d="M654.05 240.28H628.54V265.79H654.05V240.28Z" fill="#FAFF00"/>
<path d="M688.92 240.28H663.41V265.79H688.92V240.28Z" fill="#FAFF00"/>
<path opacity="0.2" d="M723.79 240.28H698.28V265.79H723.79V240.28Z" fill="#FAFF00"/>
<path opacity="0.2" d="M758.65 240.28H733.14V265.79H758.65V240.28Z" fill="#FAFF00"/>
<path opacity="0.2" d="M793.52 240.28H768.01V265.79H793.52V240.28Z" fill="#FAFF00"/>
<path opacity="0.2" d="M828.38 240.28H802.87V265.79H828.38V240.28Z" fill="#FAFF00"/>
<path opacity="0.2" d="M863.25 240.28H837.74V265.79H863.25V240.28Z" fill="#FAFF00"/>
<path opacity="0.7" d="M898.12 240.28H872.61V265.79H898.12V240.28Z" fill="#FAFF00"/>
<path opacity="0.2" d="M932.98 240.28H907.47V265.79H932.98V240.28Z" fill="#FAFF00"/>
<path opacity="0.2" d="M967.85 240.28H942.34V265.79H967.85V240.28Z" fill="#FAFF00"/>
<path d="M1002.71 240.28H977.2V265.79H1002.71V240.28Z" fill="#FAFF00"/>
<path opacity="0.2" d="M131.06 272.59H105.55V298.1H131.06V272.59Z" fill="#FAFF00"/>
<path opacity="0.2" d="M165.93 272.59H140.42V298.1H165.93V272.59Z" fill="#FAFF00"/>
<path opacity="0.2" d="M200.79 272.59H175.28V298.1H200.79V272.59Z" fill="#FAFF00"/>
<path opacity="0.4" d="M235.66 272.59H210.15V298.1H235.66V272.59Z" fill="#FAFF00"/>
<path opacity="0.2" d="M270.53 272.59H245.02V298.1H270.53V272.59Z" fill="#FAFF00"/>
<path opacity="0.2" d="M305.39 272.59H279.88V298.1H305.39V272.59Z" fill="#FAFF00"/>
<path opacity="0.7" d="M340.26 272.59H314.75V298.1H340.26V272.59Z" fill="#FAFF00"/>
<path opacity="0.2" d="M375.12 272.59H349.61V298.1H375.12V272.59Z" fill="#FAFF00"/>
<path opacity="0.2" d="M409.99 272.59H384.48V298.1H409.99V272.59Z" fill="#FAFF00"/>
<path opacity="0.2" d="M444.86 272.59H419.35V298.1H444.86V272.59Z" fill="#FAFF00"/>
<path d="M479.72 272.59H454.21V298.1H479.72V272.59Z" fill="#FAFF00"/>
<path opacity="0.2" d="M514.59 272.59H489.08V298.1H514.59V272.59Z" fill="#FAFF00"/>
<path d="M549.45 272.59H523.94V298.1H549.45V272.59Z" fill="#FAFF00"/>
<path d="M584.32 272.59H558.81V298.1H584.32V272.59Z" fill="#FAFF00"/>
<path opacity="0.2" d="M619.19 272.59H593.68V298.1H619.19V272.59Z" fill="#FAFF00"/>
<path opacity="0.2" d="M654.05 272.59H628.54V298.1H654.05V272.59Z" fill="#FAFF00"/>
<path opacity="0.2" d="M688.92 272.59H663.41V298.1H688.92V272.59Z" fill="#FAFF00"/>
<path opacity="0.2" d="M723.79 272.59H698.28V298.1H723.79V272.59Z" fill="#FAFF00"/>
<path opacity="0.2" d="M758.65 272.59H733.14V298.1H758.65V272.59Z" fill="#FAFF00"/>
<path opacity="0.2" d="M793.52 272.59H768.01V298.1H793.52V272.59Z" fill="#FAFF00"/>
<path opacity="0.2" d="M828.38 272.59H802.87V298.1H828.38V272.59Z" fill="#FAFF00"/>
<path opacity="0.2" d="M863.25 272.59H837.74V298.1H863.25V272.59Z" fill="#FAFF00"/>
<path opacity="0.2" d="M898.12 272.59H872.61V298.1H898.12V272.59Z" fill="#FAFF00"/>
<path opacity="0.2" d="M932.98 272.59H907.47V298.1H932.98V272.59Z" fill="#FAFF00"/>
<path opacity="0.4" d="M967.85 272.59H942.34V298.1H967.85V272.59Z" fill="#FAFF00"/>
<path d="M1002.71 272.59H977.2V298.1H1002.71V272.59Z" fill="#FAFF00"/>
<path opacity="0.7" d="M131.06 304.91H105.55V330.42H131.06V304.91Z" fill="#FAFF00"/>
<path opacity="0.7" d="M165.93 304.91H140.42V330.42H165.93V304.91Z" fill="#FAFF00"/>
<path opacity="0.7" d="M200.79 304.91H175.28V330.42H200.79V304.91Z" fill="#FAFF00"/>
<path opacity="0.7" d="M235.66 304.91H210.15V330.42H235.66V304.91Z" fill="#FAFF00"/>
<path opacity="0.7" d="M270.53 304.91H245.02V330.42H270.53V304.91Z" fill="#FAFF00"/>
<path opacity="0.2" d="M305.39 304.91H279.88V330.42H305.39V304.91Z" fill="#FAFF00"/>
<path opacity="0.2" d="M340.26 304.91H314.75V330.42H340.26V304.91Z" fill="#FAFF00"/>
<path opacity="0.2" d="M375.12 304.91H349.61V330.42H375.12V304.91Z" fill="#FAFF00"/>
<path opacity="0.2" d="M409.99 304.91H384.48V330.42H409.99V304.91Z" fill="#FAFF00"/>
<path opacity="0.2" d="M444.86 304.91H419.35V330.42H444.86V304.91Z" fill="#FAFF00"/>
<path opacity="0.2" d="M479.72 304.91H454.21V330.42H479.72V304.91Z" fill="#FAFF00"/>
<path d="M514.59 304.91H489.08V330.42H514.59V304.91Z" fill="#FAFF00"/>
<path opacity="0.2" d="M584.32 304.91H558.81V330.42H584.32V304.91Z" fill="#FAFF00"/>
<path opacity="0.2" d="M619.19 304.91H593.68V330.42H619.19V304.91Z" fill="#FAFF00"/>
<path d="M654.05 304.91H628.54V330.42H654.05V304.91Z" fill="#FAFF00"/>
<path opacity="0.2" d="M688.92 304.91H663.41V330.42H688.92V304.91Z" fill="#FAFF00"/>
<path opacity="0.2" d="M723.79 304.91H698.28V330.42H723.79V304.91Z" fill="#FAFF00"/>
<path opacity="0.2" d="M758.65 304.91H733.14V330.42H758.65V304.91Z" fill="#FAFF00"/>
<path opacity="0.2" d="M793.52 304.91H768.01V330.42H793.52V304.91Z" fill="#FAFF00"/>
<path opacity="0.2" d="M828.38 304.91H802.87V330.42H828.38V304.91Z" fill="#FAFF00"/>
<path opacity="0.2" d="M863.25 304.91H837.74V330.42H863.25V304.91Z" fill="#FAFF00"/>
<path opacity="0.2" d="M898.12 304.91H872.61V330.42H898.12V304.91Z" fill="#FAFF00"/>
<path opacity="0.2" d="M932.98 304.91H907.47V330.42H932.98V304.91Z" fill="#FAFF00"/>
<path d="M1002.71 304.91H977.2V330.42H1002.71V304.91Z" fill="#FAFF00"/>
<path opacity="0.2" d="M967.85 304.91H942.34V330.42H967.85V304.91Z" fill="#FAFF00"/>
</g>
<defs>
<clipPath id="clip0">
<rect width="1144" height="617.32" fill="white"/>
</clipPath>
</defs>
</svg>
